<?xml version="1.0" encoding="UTF-8"?>
<svg version="1.1" xmlns="http://www.w3.org/2000/svg" width="1215" height="319">
<path d="M0 0 C2.40772843 0.00096822 4.81221476 -0.04068709 7.21948242 -0.08496094 C19.42821622 -0.17752597 29.06761313 2.44916563 40.49194336 6.71484375 C44.2641601 7.79357713 46.12795821 6.8024593 49.6784668 5.25097656 C57.11940159 2.06328368 63.60681128 0.18796576 71.67456055 0.12988281 C72.47015884 0.12085434 73.26575714 0.11182587 74.08546448 0.1025238 C75.76543459 0.08808121 77.44546019 0.07914955 79.12548828 0.07543945 C81.64091645 0.06365252 84.15379739 0.01450615 86.66870117 -0.03613281 C110.77233918 -0.27790088 131.32907922 10.04518935 148.6159668 26.50097656 C165.9965782 44.82697687 171.83773855 66.76192589 171.51049805 91.40722656 C170.95112032 109.28526951 163.5238476 127.45586025 151.2409668 140.50097656 C150.34893555 141.4484375 149.4569043 142.39589844 148.5378418 143.37207031 C144.76179072 147.28116693 141.02068491 151.02255129 136.56542969 154.15991211 C135.94108536 154.60102829 135.31674103 155.04214447 134.67347717 155.49662781 C133.96438454 155.99378044 133.96438454 155.99378044 133.2409668 156.50097656 C136.01597544 171.91872562 138.96515847 187.29570413 142.0534668 202.65332031 C142.22206207 203.49217396 142.39065735 204.3310276 142.56436157 205.19530106 C144.13937471 213.02846101 145.72002453 220.86048131 147.30249023 228.69213867 C148.17972567 233.03463359 149.05384373 237.3777481 149.92636108 241.72119331 C150.25038999 243.33107593 150.57552473 244.94073656 150.90200806 246.55012321 C153.93381275 261.49533823 156.55869337 276.48024535 159.2409668 291.50097656 C82.3509668 291.50097656 5.4609668 291.50097656 -73.7590332 291.50097656 C-72.55247913 283.05509804 -71.32913975 274.78630074 -69.61450195 266.45800781 C-69.40822174 265.43773499 -69.20194153 264.41746216 -68.9894104 263.36627197 C-68.54390051 261.16346507 -68.09675314 258.96098881 -67.64810181 256.75881958 C-66.42300782 250.74248846 -65.21186812 244.72335386 -64.0012207 238.70410156 C-63.61517418 236.78568199 -63.61517418 236.78568199 -63.22132874 234.82850647 C-59.92565557 218.42233912 -56.75079765 201.99251823 -53.5715332 185.56347656 C-53.27697631 184.04195994 -52.98241052 182.52044504 -52.68783569 180.99893188 C-51.04260712 172.50005632 -49.39960263 164.00075288 -47.7590332 155.50097656 C-48.38140869 155.20006104 -49.00378418 154.89914551 -49.64501953 154.58911133 C-53.54060196 152.58395936 -56.56019762 149.45679107 -59.7590332 146.50097656 C-60.50926758 145.81648437 -61.25950195 145.13199219 -62.0324707 144.42675781 C-75.84471579 131.29805387 -85.48695421 112.05533679 -86.32543945 92.91503906 C-86.35289256 90.31882971 -86.35102251 87.72216358 -86.3215332 85.12597656 C-86.31514328 84.10916306 -86.31514328 84.10916306 -86.30862427 83.07180786 C-86.21531738 72.38588814 -85.25405142 63.27423586 -80.7590332 53.50097656 C-80.49670898 52.89560059 -80.23438477 52.29022461 -79.96411133 51.66650391 C-76.35288164 43.36370663 -71.8586391 36.20407704 -65.7590332 29.50097656 C-64.94692383 28.59605469 -64.13481445 27.69113281 -63.2980957 26.75878906 C-53.00935403 15.86660213 -40.87767892 8.49470977 -26.7590332 3.50097656 C-26.02177002 3.23317383 -25.28450684 2.96537109 -24.52490234 2.68945312 C-16.40625424 0.07969372 -8.44495469 -0.02384378 0 0 Z " fill="#874198" transform="translate(96.759033203125,13.4990234375)"/>
<path d="M0 0 C1.31476067 -0.00262848 1.31476067 -0.00262848 2.65608215 -0.00531006 C5.56232668 -0.0097226 8.46851068 -0.00679292 11.37475586 -0.00341797 C13.38732413 -0.00409112 15.39989233 -0.00506124 17.41246033 -0.00631714 C21.63337985 -0.00779325 25.85427824 -0.00564209 30.07519531 -0.00097656 C35.49846864 0.00472432 40.92169251 0.00143889 46.34496403 -0.00454903 C50.50121944 -0.00815385 54.65746304 -0.00701648 58.8137188 -0.00442123 C60.8141016 -0.00375194 62.81448545 -0.00458048 64.81486702 -0.00690079 C67.60447174 -0.00942642 70.39399512 -0.00558816 73.18359375 0 C74.01842285 -0.00202423 74.85325195 -0.00404846 75.71337891 -0.00613403 C81.4128364 0.01513132 81.4128364 0.01513132 82.52709961 1.12939453 C82.59936463 2.98226955 82.61091181 4.83773331 82.58959961 6.69189453 C82.58057617 7.70380859 82.57155273 8.71572266 82.56225586 9.75830078 C82.5506543 10.54076172 82.53905273 11.32322266 82.52709961 12.12939453 C81.60928711 12.16677734 80.69147461 12.20416016 79.74584961 12.24267578 C72.78593147 12.61552854 66.80513711 12.99037578 60.52709961 16.12939453 C57.76623448 20.27069222 58.10806411 23.28341504 58.52709961 28.12939453 C60.51020273 37.43707919 64.77027016 46.2149883 68.46459961 54.94189453 C69.14290355 56.55493639 69.82062973 58.16822132 70.49780273 59.78173828 C71.86374919 63.03588695 73.23165232 66.28920191 74.60083008 69.54199219 C77.27106782 75.89285017 79.9002005 82.26049708 82.52709961 88.62939453 C85.83588592 96.64241676 89.15836289 104.649456 92.49975586 112.64892578 C92.83937347 113.46235443 93.17899109 114.27578308 93.52890015 115.11386108 C95.19772366 119.11068076 96.867992 123.10688518 98.54077148 127.10205078 C99.15215992 128.56556726 99.76349077 130.02910779 100.37475586 131.49267578 C100.64925064 132.14669876 100.92374542 132.80072174 101.20655823 133.4745636 C103.08935661 137.98826124 104.83045379 142.54237889 106.52709961 147.12939453 C109.31721366 140.04062535 111.51004306 132.8111 113.69506836 125.51611328 C114.09738114 124.17968763 114.49991802 122.84332941 114.90266418 121.5070343 C115.96236197 117.98857142 117.01872725 114.46911632 118.07446289 110.94946289 C119.3263299 106.77896011 120.5829212 102.60987786 121.83880806 98.44058418 C122.87012158 95.01478693 123.89824447 91.58808678 124.91989136 88.15939331 C126.87905899 81.58793271 128.86425083 75.02801859 130.92407227 68.48730469 C131.2983284 67.27927689 131.67258453 66.07124908 132.05818176 64.82661438 C132.75256279 62.58717363 133.45941003 60.35153847 134.18193054 58.12101746 C137.97745302 45.75644677 137.26541158 35.7271438 131.52709961 24.12939453 C128.62330795 18.91074925 125.72300495 15.35154673 119.89428711 13.58251953 C115.14473181 12.67336373 110.35093828 12.36254673 105.52709961 12.12939453 C105.52709961 8.49939453 105.52709961 4.86939453 105.52709961 1.12939453 C108.79626675 -0.50518904 112.4076925 -0.00873153 116 0 C117.31476067 -0.00262848 117.31476067 -0.00262848 118.65608215 -0.00531006 C121.56232668 -0.0097226 124.46851068 -0.00679292 127.37475586 -0.00341797 C129.38732413 -0.00409112 131.39989233 -0.00506124 133.41246033 -0.00631714 C137.63337985 -0.00779325 141.85427824 -0.00564209 146.07519531 -0.00097656 C151.49846864 0.00472432 156.92169251 0.00143889 162.34496403 -0.00454903 C166.50121944 -0.00815385 170.65746304 -0.00701648 174.8137188 -0.00442123 C176.8141016 -0.00375194 178.81448545 -0.00458048 180.81486702 -0.00690079 C183.60447174 -0.00942642 186.39399512 -0.00558816 189.18359375 0 C190.01842285 -0.00202423 190.85325195 -0.00404846 191.71337891 -0.00613403 C197.4128364 0.01513132 197.4128364 0.01513132 198.52709961 1.12939453 C198.59936463 2.98226955 198.61091181 4.83773331 198.58959961 6.69189453 C198.58057617 7.70380859 198.57155273 8.71572266 198.56225586 9.75830078 C198.54485352 10.93199219 198.54485352 10.93199219 198.52709961 12.12939453 C197.22514648 12.17837891 195.92319336 12.22736328 194.58178711 12.27783203 C192.8552049 12.35290082 191.12864339 12.42844686 189.40209961 12.50439453 C188.11819336 12.55080078 188.11819336 12.55080078 186.80834961 12.59814453 C178.44934266 12.89824509 178.44934266 12.89824509 171.52709961 17.12939453 C169.35073122 29.55202823 174.28534558 40.72790132 178.52709961 52.12939453 C179.38225511 54.46236564 180.23637271 56.79571739 181.08959961 59.12939453 C182.4778174 62.91987397 183.86824998 66.70942265 185.26879883 70.49536133 C188.45003604 79.10596137 191.50032752 87.75367585 194.46459961 96.44189453 C199.91818302 112.42316857 205.70946226 128.27776381 211.52709961 144.12939453 C213.9311065 140.52338419 215.17978581 136.76005478 216.58178711 132.69580078 C216.87944977 131.84309601 217.17711243 130.99039124 217.48379517 130.11184692 C218.46121177 127.30678801 219.43196177 124.49947841 220.40209961 121.69189453 C221.07846216 119.74305848 221.75489514 117.79424686 222.43139648 115.84545898 C239.94350476 73.12730421 239.94350476 73.12730421 248.83959961 28.75439453 C248.87698242 27.46791016 248.91436523 26.18142578 248.95288086 24.85595703 C248.45926916 20.53572254 247.28497567 18.44979766 244.52709961 15.12939453 C238.30385984 12.34879804 231.25453341 12.51381932 224.52709961 12.12939453 C224.50022682 10.31697401 224.48076245 8.5044422 224.46459961 6.69189453 C224.45299805 5.68255859 224.44139648 4.67322266 224.42944336 3.63330078 C224.52709961 1.12939453 224.52709961 1.12939453 225.52709961 0.12939453 C227.89471536 0.02913758 230.23317034 -0.00679482 232.60131836 0 C233.711035 -0.00262848 233.711035 -0.00262848 234.84317017 -0.00531006 C237.30033684 -0.00972857 239.75743214 -0.0067906 242.21459961 -0.00341797 C243.91471368 -0.00409101 245.61482766 -0.00506103 247.31494141 -0.00631714 C250.88274042 -0.00779411 254.45051444 -0.00563958 258.01831055 -0.00097656 C262.60198455 0.00472073 267.1856 0.00144172 271.76927185 -0.00454903 C275.28129521 -0.00815466 278.79330459 -0.00701604 282.30532837 -0.00442123 C283.99590054 -0.00375197 285.68647397 -0.00458036 287.37704468 -0.00690079 C289.73569118 -0.00942736 292.09424156 -0.00558668 294.45288086 0 C295.15837067 -0.00202423 295.86386047 -0.00404846 296.59072876 -0.00613403 C301.4128369 0.01513182 301.4128369 0.01513182 302.52709961 1.12939453 C302.59936463 2.98226955 302.61091181 4.83773331 302.58959961 6.69189453 C302.58057617 7.70380859 302.57155273 8.71572266 302.56225586 9.75830078 C302.54485352 10.93199219 302.54485352 10.93199219 302.52709961 12.12939453 C301.27155273 12.20416016 300.01600586 12.27892578 298.72241211 12.35595703 C285.03813862 13.2418796 285.03813862 13.2418796 273.52709961 20.12939453 C268.15788822 27.14394887 264.8589129 34.64287301 262.07397461 42.96142578 C261.69182297 44.06355408 261.30967133 45.16568237 260.91593933 46.3012085 C259.69024494 49.84385705 258.48376402 53.39272483 257.27709961 56.94189453 C256.00856415 60.62139009 254.73509813 64.29915638 253.46153259 67.97691345 C252.6262508 70.39044819 251.79262702 72.80455741 250.96070862 75.21925354 C247.90401939 84.08560763 244.73711161 92.90327854 241.46459961 101.69189453 C237.66471479 111.94004702 234.04665424 122.23862718 230.51416016 132.58178711 C226.31140988 144.84773248 221.92200867 157.04538938 217.52392578 169.24243164 C216.95724733 170.81411749 216.39059651 172.3858133 215.82397461 173.95751953 C215.5505574 174.7157753 215.2771402 175.47403107 214.99543762 176.25526428 C212.13462699 184.1998949 209.32665064 192.16300637 206.52709961 200.12939453 C203.22709961 200.12939453 199.92709961 200.12939453 196.52709961 200.12939453 C186.45028247 172.74636537 176.40667226 145.35138954 166.40209961 117.94189453 C166.03707903 116.9419301 166.03707903 116.9419301 165.6646843 115.92176437 C159.6075657 99.32839995 153.55863134 82.73207926 147.52709961 66.12939453 C145.83817652 69.4150717 144.6267131 72.65368261 143.49584961 76.17626953 C143.10268555 77.39701172 142.70952148 78.61775391 142.30444336 79.87548828 C141.87852401 81.21007963 141.4527468 82.54471635 141.02709961 83.87939453 C140.58062992 85.2713681 140.1340127 86.66329435 139.68725586 88.05517578 C136.37336017 98.3987081 133.12913256 108.76370775 129.90328979 119.13497925 C126.46606482 130.18409943 122.93956748 141.20190962 119.3671875 152.20800781 C117.03588502 159.40054124 114.74253832 166.60379608 112.48803711 173.82080078 C112.23495285 174.63029678 111.98186859 175.43979279 111.72111511 176.27381897 C110.48213848 180.2390363 109.24718548 184.20545149 108.01757812 188.17358398 C107.57162601 189.6041956 107.12558573 191.03477974 106.67944336 192.46533203 C106.47576141 193.12727066 106.27207947 193.78920929 106.06222534 194.47120667 C104.64042192 199.01607222 104.64042192 199.01607222 103.52709961 200.12939453 C100.52706516 200.2711731 97.52952726 200.17168224 94.52709961 200.12939453 C91.15831647 193.58030344 88.09794407 186.97431116 85.29663086 180.16455078 C84.90881943 179.23040848 84.521008 178.29626617 84.1214447 177.33381653 C83.29011311 175.3301955 82.46040748 173.32589919 81.63220215 171.32098389 C80.31361151 168.12898339 78.99076876 164.93877511 77.66674805 161.74902344 C76.29736302 158.4498535 74.92822743 155.15058274 73.56039429 151.85076904 C69.15594472 141.22552915 64.72118146 130.61310787 60.27709961 120.00439453 C59.90967651 119.12696594 59.54225342 118.24953735 59.16369629 117.34552002 C48.84594095 92.70712868 38.48983172 68.08466857 28.0625 43.49243164 C27.46683228 42.08682983 27.46683228 42.08682983 26.85913086 40.65283203 C26.47845459 39.75459717 26.09777832 38.8563623 25.70556641 37.9309082 C23.9948265 33.86404671 22.31656467 29.78380639 20.64086914 25.70239258 C18.07510848 19.77504676 15.70478672 16.6251527 9.52709961 14.12939453 C6.08392634 13.50908952 2.63815653 13.21292178 -0.84790039 12.94189453 C-1.77473633 12.86003906 -2.70157227 12.77818359 -3.65649414 12.69384766 C-5.92770303 12.4948242 -8.20020159 12.31061348 -10.47290039 12.12939453 C-10.47290039 8.49939453 -10.47290039 4.86939453 -10.47290039 1.12939453 C-7.20373325 -0.50518904 -3.5923075 -0.00873153 0 0 Z " fill="#7F3E98" transform="translate(497.472900390625,18.87060546875)"/>
<path d="M0 0 C13.86555216 10.80727836 21.20357791 23.92967536 23.72245407 41.36003113 C24.79161441 51.52969938 24.44506673 61.86002868 24.44024777 72.07675457 C24.4422076 75.7268619 24.46261219 79.37686395 24.48143005 83.0269165 C24.52211009 91.4828463 24.54096176 99.93875471 24.55760193 108.39476013 C24.58007658 119.20170567 24.61344989 130.00859176 24.66480106 140.81543946 C24.68470501 145.15247551 24.69430116 149.48937564 24.69575322 153.82645559 C24.6978386 155.86784423 24.70438358 157.90915994 24.71292114 159.95053101 C24.72321333 162.43915865 24.72631828 164.92783009 24.72102356 167.41647339 C24.72785156 168.50958832 24.73467957 169.60270325 24.74171448 170.72894287 C24.74416593 172.15569147 24.74416593 172.15569147 24.74666691 173.61126328 C24.84129739 176.26445822 24.84129739 176.26445822 27 179 C31.55298058 180.52924539 36.50276704 180.0753529 41.25 180 C44.17229513 179.95448138 47.07650815 179.952656 50 180 C51 181 51 181 51.09765625 183.50390625 C51.08025391 185.01791016 51.08025391 185.01791016 51.0625 186.5625 C51.05347656 187.57441406 51.04445313 188.58632812 51.03515625 189.62890625 C51.01775391 190.80259766 51.01775391 190.80259766 51 192 C47.85576174 193.57211913 44.50928924 193.07907162 41.06201172 193.02172852 C40.24241974 193.01212097 39.42282776 193.00251343 38.57839966 192.99261475 C35.86207657 192.95956277 33.14591122 192.91925411 30.4296875 192.87890625 C28.5492509 192.85461119 26.66880843 192.83076733 24.7883606 192.80735779 C19.83332636 192.74445577 14.87839592 192.67540648 9.92346191 192.60510254 C4.8695957 192.53447429 -0.18434423 192.46962438 -5.23828125 192.40429688 C-15.15893518 192.2752057 -25.07948911 192.13962412 -35 192 C-35 188.37 -35 184.74 -35 181 C-33.69804688 180.93941406 -32.39609375 180.87882813 -31.0546875 180.81640625 C-29.32811601 180.73195438 -27.601554 180.64730874 -25.875 180.5625 C-25.0190625 180.52318359 -24.163125 180.48386719 -23.28125 180.44335938 C-18.78278208 180.21843598 -14.43193793 179.86459117 -10 179 C-9.04594934 175.78201458 -8.87210569 172.88317462 -8.86628723 169.53276062 C-8.86202225 168.42144272 -8.85775726 167.31012482 -8.85336304 166.16513062 C-8.85381622 164.95007843 -8.85426941 163.73502625 -8.85473633 162.4831543 C-8.85137772 161.19968613 -8.8480191 159.91621796 -8.84455872 158.59385681 C-8.83572461 155.07253289 -8.83338062 151.55123329 -8.83274293 148.02989936 C-8.83203118 145.82399033 -8.8298943 143.61808744 -8.82724571 141.41217995 C-8.81798863 133.69852941 -8.81391058 125.98489614 -8.81469727 118.27124023 C-8.81529559 111.11301833 -8.80479323 103.95487239 -8.7889536 96.79666966 C-8.77580267 90.63079691 -8.77051663 84.46494871 -8.77115268 78.29906207 C-8.7714058 74.62599541 -8.76865951 70.95299601 -8.75797462 67.27994347 C-8.74633726 63.16663977 -8.75108619 59.05350139 -8.75708008 54.94018555 C-8.75146057 53.7473999 -8.74584106 52.55461426 -8.74005127 51.32568359 C-8.79115403 37.40824769 -9.42411877 22.26200463 -18.4375 10.9375 C-24.79598865 6.12986224 -31.04597741 4.05562608 -39 5 C-56.60727511 9.54465065 -68.96986126 22.744087 -78 38 C-88.39715554 56.31374578 -89.5992039 74.39454845 -89.4609375 94.99609375 C-89.45854807 97.36597086 -89.45764881 99.73584989 -89.4581604 102.10572815 C-89.45505534 107.03325525 -89.43865242 111.96048663 -89.41162109 116.88793945 C-89.37736311 123.21315249 -89.37000169 129.53804633 -89.37151146 135.86334133 C-89.37096926 140.73850058 -89.36003084 145.61358967 -89.34550858 150.48872566 C-89.33913813 152.82320692 -89.3352011 155.15769611 -89.33372116 157.49218559 C-89.32940669 160.7350835 -89.31195407 163.977635 -89.29052734 167.22045898 C-89.29143372 168.18708969 -89.29234009 169.1537204 -89.29327393 170.14964294 C-89.28474396 171.02813904 -89.27621399 171.90663513 -89.26742554 172.81175232 C-89.26407385 173.57688361 -89.26072216 174.3420149 -89.25726891 175.13033199 C-89.15815829 177.24458539 -89.15815829 177.24458539 -87 179 C-84.08978379 179.96397996 -81.28508084 180.1795156 -78.234375 180.31640625 C-77.34492187 180.35830078 -76.45546875 180.40019531 -75.5390625 180.44335938 C-74.61867188 180.48267578 -73.69828125 180.52199219 -72.75 180.5625 C-71.81414062 180.60568359 -70.87828125 180.64886719 -69.9140625 180.69335938 C-67.60953778 180.79917939 -65.30478761 180.90006917 -63 181 C-63 184.63 -63 188.26 -63 192 C-91.71 192 -120.42 192 -150 192 C-150 188.37 -150 184.74 -150 181 C-148.69804688 180.95101562 -147.39609375 180.90203125 -146.0546875 180.8515625 C-144.32810529 180.77649371 -142.60154378 180.70094767 -140.875 180.625 C-139.59109375 180.57859375 -139.59109375 180.57859375 -138.28125 180.53125 C-133.55024824 180.31289607 -129.39437711 179.95149654 -125 178 C-123.58434294 175.16868588 -123.87075191 172.79693466 -123.86628723 169.62953186 C-123.86402167 168.96840423 -123.86175612 168.30727659 -123.85942191 167.62611479 C-123.8530684 165.40054662 -123.85391213 163.17503914 -123.85473633 160.94946289 C-123.85174569 159.35799582 -123.84834338 157.76652947 -123.84455872 156.17506409 C-123.8357051 151.84453682 -123.83338004 147.51402929 -123.83274293 143.18349385 C-123.83179493 139.57249219 -123.82811791 135.96149516 -123.82457083 132.35049528 C-123.8164212 123.83367742 -123.81398707 115.31687014 -123.81469727 106.80004883 C-123.81529829 98.00455269 -123.8047427 89.20911784 -123.7889536 80.41363722 C-123.77589349 72.87050972 -123.77051272 65.32740228 -123.77115268 57.78426355 C-123.7714081 53.27542019 -123.76853239 48.76663128 -123.75797462 44.25779915 C-123.74831924 40.01842177 -123.74819678 35.77915118 -123.75549126 31.53977013 C-123.75654028 29.98168406 -123.75415549 28.42359143 -123.7481308 26.86551666 C-123.74045249 24.74270135 -123.74502767 22.62025865 -123.75276184 20.49745178 C-123.75221707 19.30817109 -123.75167231 18.1188904 -123.75111103 16.8935709 C-123.78299962 13.80403323 -123.78299962 13.80403323 -126 11 C-128.8730477 9.95005539 -131.7262528 9.81997584 -134.765625 9.68359375 C-136.09980469 9.62075195 -136.09980469 9.62075195 -137.4609375 9.55664062 C-138.38132812 9.51732422 -139.30171875 9.47800781 -140.25 9.4375 C-141.65378906 9.37272461 -141.65378906 9.37272461 -143.0859375 9.30664062 C-145.39046222 9.20082061 -147.69521239 9.09993083 -150 9 C-150 5.37 -150 1.74 -150 -2 C-147.41707089 -3.29146455 -145.55613757 -3.12705706 -142.6640625 -3.12939453 C-141.54950684 -3.13254669 -140.43495117 -3.13569885 -139.28662109 -3.13894653 C-137.47411865 -3.13591019 -137.47411865 -3.13591019 -135.625 -3.1328125 C-134.38959473 -3.13376923 -133.15418945 -3.13472595 -131.88134766 -3.13571167 C-128.59413916 -3.13656804 -125.30697764 -3.13253344 -122.01977539 -3.12695312 C-120.00210059 -3.12500203 -117.98446928 -3.12694592 -115.96679688 -3.13037109 C-112.10284387 -3.13652992 -108.23895565 -3.13580484 -104.375 -3.1328125 C-103.16666504 -3.13483673 -101.95833008 -3.13686096 -100.71337891 -3.13894653 C-99.04154541 -3.13421829 -99.04154541 -3.13421829 -97.3359375 -3.12939453 C-96.35157715 -3.12859894 -95.3672168 -3.12780334 -94.35302734 -3.12698364 C-92 -3 -92 -3 -90 -2 C-89.505 15.82 -89.505 15.82 -89 34 C-86.03 29.05 -86.03 29.05 -83 24 C-80.51000574 20.5064339 -77.80281707 17.24677474 -75 14 C-74.40703125 13.31035156 -73.8140625 12.62070312 -73.203125 11.91015625 C-55.00541126 -7.72626563 -23.39196198 -15.73783085 0 0 Z M-91 35 C-90 37 -90 37 -90 37 Z " fill="#4B4446" transform="translate(1142,22)"/>
<path d="M0 0 C1.03125 0.7425 2.0625 1.485 3.125 2.25 C13.85599773 12.51443261 18.91047141 26.09016243 19.25828552 40.77357483 C19.27250505 42.91289045 19.27624773 45.05229337 19.27124023 47.19165039 C19.27646698 48.36858963 19.28169373 49.54552887 19.28707886 50.75813293 C19.29727047 53.2974471 19.30309076 55.83678187 19.30496025 58.3761158 C19.30864116 62.3994823 19.32506333 66.42260335 19.34571838 70.44590759 C19.39466405 80.43400437 19.42577292 90.42214619 19.44702148 100.41033936 C19.46358395 108.18626989 19.48648609 115.96205384 19.53004223 123.73788637 C19.54816764 127.07875164 19.55861779 130.41923691 19.55874443 133.76017952 C19.55893696 137.48621944 19.5772379 141.21177902 19.59936523 144.93774414 C19.59478806 146.03046631 19.59021088 147.12318848 19.585495 148.24902344 C19.64478565 154.54475594 20.17604094 160.27895495 23 166 C25.86386147 168.62520635 27.59040049 168.94786915 31.4375 169.4375 C36.86119392 168.77143233 39.68918223 166.53552938 43.1875 162.4375 C48.78205314 151.8271406 49.02296469 139.73591824 50 128 C52.97 128 55.94 128 59 128 C59.52702991 146.13373284 59.01001518 165.95300456 46.75 180.5625 C39.51979063 187.80448496 33.60221395 189.35683807 23.5625 189.5 C16.37090133 189.42522454 10.27339498 188.79487031 4 185 C2.93072266 184.38125 2.93072266 184.38125 1.83984375 183.75 C-6.38589791 178.33792324 -10.21578353 170.03099976 -12.4765625 160.6953125 C-13.23299942 156.80022688 -13.67587039 152.95438125 -14 149 C-14.32871094 149.66644531 -14.65742188 150.33289063 -14.99609375 151.01953125 C-18.84621406 158.47979147 -23.4291585 164.73399366 -29 171 C-29.66128906 171.74507812 -30.32257813 172.49015625 -31.00390625 173.2578125 C-39.52012789 182.30737328 -51.21492348 188.89172305 -63.796875 189.53125 C-65.78120486 189.54821008 -67.76594565 189.53716181 -69.75 189.5 C-70.79841064 189.48718994 -71.84682129 189.47437988 -72.92700195 189.46118164 C-88.2336485 189.06398907 -103.01001636 184.81841944 -114.5 174.1875 C-122.16385589 165.84456828 -125.18565499 155.41405736 -125.75 144.3125 C-125.79020264 143.52230469 -125.83040527 142.73210937 -125.87182617 141.91796875 C-126.48757555 126.04100853 -121.53652168 111.89460468 -111.109375 99.80859375 C-106.71104675 95.51938433 -101.80282666 92.58914568 -96.375 89.8125 C-95.47213257 89.34904175 -95.47213257 89.34904175 -94.55102539 88.8762207 C-82.27200827 82.94390972 -69.24212394 79.95556246 -55.9375 77.4375 C-54.4002541 77.13929344 -52.86314589 76.8403762 -51.32617188 76.54077148 C-46.88685025 75.67917585 -42.4439195 74.83750234 -38 74 C-36.77812988 73.76829102 -35.55625977 73.53658203 -34.29736328 73.29785156 C-16.83501059 70 -16.83501059 70 -13 70 C-13.0695803 64.39859345 -13.15787372 58.79788416 -13.26245117 53.19702148 C-13.29541184 51.29736157 -13.32353041 49.3976105 -13.34643555 47.49780273 C-13.20604948 24.65506725 -13.20604948 24.65506725 -23.78515625 5.22265625 C-33.17382925 -2.41147348 -45.23895752 -3.85337379 -57 -3 C-66.52065522 -1.43782531 -77.11469222 1.91218317 -84 9 C-87.36500712 13.7239523 -88.8989394 18.22531785 -87.93359375 24.02734375 C-86.69600273 26.64233733 -85.50306637 27.16693261 -82.875 28.3125 C-81.25395509 28.88629844 -79.62896994 29.4491024 -78 30 C-72.85046708 32.37122761 -69.05567081 35.14687577 -66 40 C-64.44647572 45.71543499 -64.57612047 50.8829807 -66.984375 56.3125 C-69.56070384 60.59316946 -73.43391921 62.43826802 -78 64 C-87.33477792 65.12121634 -93.95714601 63.2090889 -101.75 58.25 C-109.51227673 50.48772327 -110.30576176 42.89871622 -110.31469727 32.42431641 C-110.10917848 19.60918674 -105.78169192 10.96116959 -96.93359375 1.87890625 C-70.73297342 -22.9155985 -27.7454072 -21.16783221 0 0 Z M-29.70654297 85.19824219 C-31.46692781 85.56223759 -33.2279874 85.9229868 -34.98974609 86.28027344 C-60.08174373 91.02708343 -60.08174373 91.02708343 -79 107 C-87.19689847 119.8968266 -88.82212407 138.49750536 -85.79296875 153.27734375 C-83.83151863 160.0119779 -81.21152442 166.27308535 -75 170 C-67.12516207 174.27491202 -57.31232552 173.45840374 -49 171 C-45.76646284 169.62819636 -42.9048834 167.96800307 -40 166 C-39.40703125 165.61457031 -38.8140625 165.22914063 -38.203125 164.83203125 C-28.27713218 157.43306871 -21.86170945 143.03643532 -17 132 C-16.64405762 131.28593994 -16.28811523 130.57187988 -15.92138672 129.83618164 C-11.78997459 120.48801734 -12.55793528 110.81345489 -12.75 100.8125 C-12.77010157 98.98374358 -12.78834585 97.15496576 -12.8046875 95.32617188 C-12.84838017 90.88357815 -12.91720354 86.44202996 -13 82 C-18.39192433 82 -24.42278531 84.10115365 -29.70654297 85.19824219 Z " fill="#4B4446" transform="translate(440,30)"/>
<path d="M0 0 C3.4194601 2.20457393 6.22079999 2.95783125 10.25390625 3.453125 C13.50643857 1.7707657 13.50643857 1.7707657 13.94921875 -1.33203125 C14.09101562 -2.41355469 14.2328125 -3.49507812 14.37890625 -4.609375 C15.17275082 -10.46571957 15.17275082 -10.46571957 16.25390625 -11.546875 C19.22390625 -11.546875 22.19390625 -11.546875 25.25390625 -11.546875 C25.25390625 10.233125 25.25390625 32.013125 25.25390625 54.453125 C22.28390625 54.453125 19.31390625 54.453125 16.25390625 54.453125 C13.85091814 49.78850102 11.67297789 45.1508364 9.76928711 40.26318359 C6.70509632 32.40707192 3.25373233 25.29868126 -1.74609375 18.453125 C-2.2153125 17.80085938 -2.68453125 17.14859375 -3.16796875 16.4765625 C-12.18120385 4.98215594 -26.65717323 -1.34654722 -40.74609375 -3.546875 C-52.47853229 -4.72011885 -64.48573 -2.09109795 -73.74609375 5.453125 C-79.32430128 11.91072054 -81.19198227 19.48570768 -81 27.89453125 C-80.37040494 34.23891226 -78.36457154 39.9561861 -73.74609375 44.453125 C-59.61402118 55.95829467 -40.10152015 61.81328872 -23.49705505 68.97035217 C-16.98773325 71.77740666 -10.48864005 74.60747459 -3.99609375 77.453125 C-2.50819336 78.10148315 -2.50819336 78.10148315 -0.99023438 78.76293945 C15.13620106 85.84240046 31.01075914 93.37242705 38.5234375 110.31640625 C44.85623561 126.85328895 43.76973511 145.450393 36.8984375 161.6484375 C30.04432255 175.13615968 19.10778118 181.23040658 5.33203125 186.47265625 C-9.0512325 191.05412732 -30.02161467 191.0379155 -43.74609375 184.453125 C-44.33745117 184.17404297 -44.92880859 183.89496094 -45.53808594 183.60742188 C-53.47196489 179.80400509 -60.67784402 175.3617582 -67.671875 170.01953125 C-71.84983321 166.86442534 -75.64154668 166.84270256 -80.74609375 167.453125 C-85.16853525 169.76048578 -86.61444257 172.66920864 -88.12109375 177.21484375 C-89.15949919 180.93363324 -89.97748024 184.66918157 -90.74609375 188.453125 C-94.04609375 188.453125 -97.34609375 188.453125 -100.74609375 188.453125 C-100.74609375 160.403125 -100.74609375 132.353125 -100.74609375 103.453125 C-97.44609375 103.453125 -94.14609375 103.453125 -90.74609375 103.453125 C-90.28348145 104.47035645 -89.82086914 105.48758789 -89.34423828 106.53564453 C-87.58849293 110.38570349 -85.81307597 114.22643828 -84.03222656 118.06494141 C-83.27082702 119.71293277 -82.51445747 121.36325945 -81.76367188 123.01611328 C-71.69595895 145.157006 -58.65076758 164.7413046 -34.9375 173.7265625 C-28.99780677 175.69587256 -23.41036124 175.70891491 -17.18359375 175.765625 C-16.14912109 175.79462891 -15.11464844 175.82363281 -14.04882812 175.85351562 C-3.80677759 175.93688861 5.09343771 173.60648114 12.6015625 166.359375 C18.84204009 159.15995877 20.71809842 149.62084696 20.12890625 140.265625 C18.98267793 132.20381913 15.54805746 126.7052463 9.24389648 121.55615234 C5.94512726 119.23594347 2.54305321 117.47846159 -1.10546875 115.796875 C-1.8362413 115.45676392 -2.56701385 115.11665283 -3.31993103 114.76623535 C-14.48904603 109.64928633 -25.96997119 105.24737934 -37.39233398 100.73486328 C-57.45288719 92.794859 -57.45288719 92.794859 -66.80078125 88.14453125 C-67.41889175 87.83781494 -68.03700226 87.53109863 -68.67384338 87.21508789 C-83.8002822 79.45614613 -96.42409145 67.55207515 -102.18359375 51.328125 C-106.10758551 37.08674111 -104.62400669 21.13907129 -97.62109375 8.140625 C-90.14276988 -3.64199294 -78.06963453 -11.2435781 -64.61328125 -14.71484375 C-40.73697203 -20.01559643 -19.46972853 -14.24144887 0 0 Z " fill="#4B4446" transform="translate(917.74609375,30.546875)"/>
</svg>
